<svg width="30" height="30" viewBox="0 0 30 30" fill="none" xmlns="http://www.w3.org/2000/svg">
<path d="M15.35 13.5915C14.4128 13.5817 13.4994 13.2947 12.7248 12.7668C11.9503 12.2389 11.3493 11.4937 10.9974 10.6249C10.6455 9.75613 10.5586 8.80268 10.7475 7.88459C10.9364 6.9665 11.3927 6.12481 12.0589 5.4655C12.7251 4.8062 13.5716 4.35874 14.4916 4.17948C15.4116 4.00022 16.3641 4.09716 17.2291 4.45809C18.0942 4.81903 18.8331 5.42783 19.3528 6.20785C19.8726 6.98786 20.15 7.90421 20.15 8.84154C20.1412 10.1073 19.6311 11.3179 18.7314 12.2082C17.8317 13.0985 16.6158 13.596 15.35 13.5915ZM15.35 5.7582C14.7424 5.76806 14.1513 5.95723 13.6509 6.30197C13.1504 6.6467 12.763 7.13163 12.5373 7.69583C12.3116 8.26003 12.2576 8.87835 12.3822 9.47313C12.5067 10.0679 12.8042 10.6126 13.2374 11.0388C13.6705 11.4651 14.2199 11.7538 14.8167 11.8688C15.4134 11.9837 16.0307 11.9198 16.5912 11.6851C17.1517 11.4503 17.6304 11.0551 17.967 10.5492C18.3036 10.0433 18.4833 9.44921 18.4834 8.84154C18.4746 8.01784 18.14 7.23113 17.5529 6.65335C16.9658 6.07558 16.1738 5.75375 15.35 5.7582Z" fill="#007EF2"/>
<path d="M15.35 13.5915C14.4127 13.5817 13.4993 13.2947 12.7248 12.7668C11.9503 12.2389 11.3492 11.4937 10.9974 10.6249C10.6455 9.75613 10.5586 8.80268 10.7474 7.88459C10.9363 6.9665 11.3926 6.12481 12.0589 5.4655C12.7251 4.8062 13.5715 4.35874 14.4916 4.17948C15.4116 4.00022 16.3641 4.09716 17.2291 4.45809C18.0941 4.81903 18.8331 5.42783 19.3528 6.20785C19.8726 6.98786 20.1499 7.90421 20.15 8.84154C20.1412 10.1073 19.6311 11.3179 18.7314 12.2082C17.8317 13.0985 16.6157 13.596 15.35 13.5915ZM15.35 5.7582C14.7424 5.76806 14.1513 5.95723 13.6508 6.30197C13.1504 6.6467 12.763 7.13163 12.5373 7.69583C12.3115 8.26003 12.2576 8.87835 12.3821 9.47313C12.5067 10.0679 12.8042 10.6126 13.2374 11.0388C13.6705 11.4651 14.2199 11.7538 14.8166 11.8688C15.4133 11.9837 16.0307 11.9198 16.5912 11.6851C17.1517 11.4503 17.6303 11.0551 17.967 10.5492C18.3036 10.0433 18.4833 9.44921 18.4833 8.84154C18.4745 8.01784 18.14 7.23113 17.5529 6.65335C16.9657 6.07558 16.1737 5.75375 15.35 5.7582ZM18.2583 14.7082C14.5621 14.065 10.757 14.6504 7.425 16.3749C7.18848 16.5062 6.99263 16.7 6.85888 16.9352C6.72513 17.1704 6.65864 17.4378 6.66667 17.7082V20.6749C6.66667 20.8959 6.75446 21.1078 6.91074 21.2641C7.06702 21.4204 7.27899 21.5082 7.5 21.5082C7.72101 21.5082 7.93297 21.4204 8.08925 21.2641C8.24553 21.1078 8.33333 20.8959 8.33333 20.6749V17.8165C11.4231 16.2662 14.9367 15.7743 18.3333 16.4165L18.2583 14.7082Z" fill="#007EF2"/>
<path d="M27.5 18.3333H21.9167V17.0999C21.9167 16.8789 21.8289 16.667 21.6726 16.5107C21.5163 16.3544 21.3044 16.2666 21.0834 16.2666C20.8624 16.2666 20.6504 16.3544 20.4941 16.5107C20.3378 16.667 20.25 16.8789 20.25 17.0999V18.3333H14.1667C13.9457 18.3333 13.7337 18.4211 13.5775 18.5773C13.4212 18.7336 13.3334 18.9456 13.3334 19.1666V27.4999C13.3334 27.7209 13.4212 27.9329 13.5775 28.0892C13.7337 28.2455 13.9457 28.3333 14.1667 28.3333H27.5C27.7211 28.3333 27.933 28.2455 28.0893 28.0892C28.2456 27.9329 28.3334 27.7209 28.3334 27.4999V19.1666C28.3334 18.9456 28.2456 18.7336 28.0893 18.5773C27.933 18.4211 27.7211 18.3333 27.5 18.3333ZM26.6667 26.6666H15V19.9999H20.25V20.3416C20.25 20.5626 20.3378 20.7746 20.4941 20.9309C20.6504 21.0871 20.8624 21.1749 21.0834 21.1749C21.3044 21.1749 21.5163 21.0871 21.6726 20.9309C21.8289 20.7746 21.9167 20.5626 21.9167 20.3416V19.9999H26.6667V26.6666Z" fill="#007EF2"/>
<path d="M18.175 22.8504H23.1416V24.0171H18.175V22.8504ZM9.03329 10.2004C6.72616 10.239 4.45904 10.8094 2.40829 11.8671C2.18526 11.9849 1.99844 12.1611 1.8678 12.3769C1.73717 12.5926 1.66763 12.8399 1.66663 13.0921V15.6754C1.66663 15.8964 1.75442 16.1084 1.9107 16.2647C2.06698 16.421 2.27895 16.5088 2.49996 16.5088C2.72097 16.5088 2.93293 16.421 3.08921 16.2647C3.2455 16.1084 3.33329 15.8964 3.33329 15.6754V13.2588C5.29271 12.2834 7.46209 11.8055 9.64996 11.8671C9.36371 11.3448 9.15592 10.7832 9.03329 10.2004ZM27.5916 11.8588C25.7523 10.8939 23.7309 10.3261 21.6583 10.1921C21.5362 10.7739 21.3314 11.3351 21.05 11.8588C23.0025 11.9055 24.9206 12.3836 26.6666 13.2588V15.6754C26.6666 15.8964 26.7544 16.1084 26.9107 16.2647C27.067 16.421 27.2789 16.5088 27.5 16.5088C27.721 16.5088 27.9329 16.421 28.0892 16.2647C28.2455 16.1084 28.3333 15.8964 28.3333 15.6754V13.0921C28.3338 12.8384 28.265 12.5895 28.1343 12.3721C28.0035 12.1547 27.8159 11.9772 27.5916 11.8588ZM8.88329 8.84209V8.28376C8.23047 8.19639 7.6365 7.86062 7.22502 7.34634C6.81354 6.83205 6.61625 6.17888 6.67424 5.5228C6.73222 4.86672 7.04101 4.25828 7.53631 3.82414C8.03161 3.38999 8.67527 3.1636 9.33329 3.19209C10.0177 3.19085 10.6756 3.45698 11.1666 3.93376C11.5999 3.57641 12.0757 3.27411 12.5833 3.03376C12.0163 2.3818 11.2651 1.91696 10.4286 1.70048C9.59215 1.48401 8.70973 1.52607 7.89766 1.82112C7.08559 2.11618 6.38197 2.65037 5.87957 3.3533C5.37716 4.05623 5.09954 4.89489 5.08329 5.75876C5.10078 6.81605 5.51179 7.82886 6.23604 8.59934C6.96029 9.36982 7.94576 9.84263 8.99996 9.92542C8.92927 9.56845 8.89023 9.20593 8.88329 8.84209ZM20.6416 1.52542C20.069 1.52555 19.502 1.63985 18.9741 1.86163C18.4461 2.08341 17.9676 2.40823 17.5666 2.81709C18.13 3.02123 18.6627 3.30162 19.15 3.65042C19.539 3.38036 19.994 3.22095 20.4666 3.18918C20.9391 3.15741 21.4114 3.25448 21.833 3.47003C22.2547 3.68557 22.61 4.01153 22.861 4.41313C23.112 4.81473 23.2493 5.27692 23.2583 5.75042C23.253 6.23679 23.1102 6.71172 22.8462 7.12024C22.5822 7.52876 22.2079 7.85415 21.7666 8.05876C21.8001 8.31573 21.8169 8.57461 21.8166 8.83376C21.8144 9.16873 21.7865 9.50304 21.7333 9.83376C22.6411 9.60037 23.4463 9.0734 24.0236 8.33489C24.6008 7.59637 24.9177 6.68774 24.925 5.75042C24.914 4.62318 24.4573 3.54609 23.6547 2.75446C22.8522 1.96282 21.7689 1.52097 20.6416 1.52542Z" fill="#007EF2"/>
</svg>
